<?xml version="1.0" standalone="no"?>
<!DOCTYPE svg PUBLIC "-//W3C//DTD SVG 20010904//EN"
 "http://www.w3.org/TR/2001/REC-SVG-20010904/DTD/svg10.dtd">
<svg version="1.0" xmlns="http://www.w3.org/2000/svg"
 width="700.000000pt" height="700.000000pt" viewBox="0 0 700.000000 700.000000"
 preserveAspectRatio="xMidYMid meet">
<metadata>
Created by potrace 1.11, written by Peter Selinger 2001-2013
</metadata>
<g transform="translate(0.000000,700.000000) scale(0.100000,-0.100000)"
fill="#000000" stroke="none">
<path d="M3407 6828 c-111 -21 -224 -91 -290 -181 -29 -40 -529 -851 -616
-1000 -20 -34 -549 -903 -754 -1237 -82 -135 -159 -261 -171 -281 -11 -20 -49
-83 -84 -140 -35 -57 -101 -165 -146 -240 l-83 -137 2 -1438 c1 -792 5 -1452
9 -1469 3 -16 7 -37 9 -45 58 -256 266 -461 534 -527 62 -15 187 -17 1385 -18
l1317 -1 605 606 604 605 0 1221 0 1222 -24 38 c-13 22 -31 54 -40 72 -10 17
-21 32 -26 32 -4 0 -8 4 -8 10 0 5 -33 61 -74 122 -40 62 -103 160 -139 218
-37 58 -71 110 -77 117 -5 7 -10 14 -10 17 0 2 -17 31 -38 63 -54 82 -693
1079 -717 1119 -21 35 -108 171 -210 331 -33 51 -95 148 -138 215 -224 352
-297 464 -306 475 -6 7 -11 16 -11 21 0 16 -103 117 -145 143 -44 28 -109 55
-152 64 -51 11 -157 13 -206 3z"/>
</g>
</svg>
